<?xml version="1.0" standalone="no"?>
<!DOCTYPE svg PUBLIC "-//W3C//DTD SVG 20010904//EN"
 "http://www.w3.org/TR/2001/REC-SVG-20010904/DTD/svg10.dtd">
<svg version="1.0" xmlns="http://www.w3.org/2000/svg"
 width="700.000000pt" height="700.000000pt" viewBox="0 0 700.000000 700.000000"
 preserveAspectRatio="xMidYMid meet">
<metadata>
Created by potrace 1.14, written by Peter Selinger 2001-2017
</metadata>
<g transform="translate(0.000000,700.000000) scale(0.100000,-0.100000)"
fill="#000000" stroke="none">
<path d="M1047 5904 c-1 -1 -24 -4 -52 -8 -95 -11 -175 -43 -270 -107 -139
-93 -231 -228 -272 -398 -14 -59 -15 -264 -15 -1881 -1 -1376 2 -1831 11
-1880 39 -209 178 -385 374 -475 141 -64 -50 -60 2662 -59 1364 0 2502 3 2528
7 162 25 326 127 421 261 56 77 87 147 111 246 17 70 18 172 18 1860 0 982 -3
1817 -7 1856 -24 253 -214 476 -474 556 -67 21 -75 21 -2550 22 -1366 1 -2484
1 -2485 0z m4924 -446 c54 -16 113 -69 135 -120 16 -40 18 -112 18 -1220 1
-648 0 -1178 -1 -1178 -1 0 -122 119 -267 264 -166 165 -290 281 -334 309
-231 154 -506 192 -767 106 -153 -51 -229 -103 -421 -291 -94 -93 -174 -168
-178 -168 -4 0 -220 213 -480 473 -260 259 -497 491 -527 514 -75 57 -200 119
-295 144 -122 33 -320 35 -439 4 -112 -29 -199 -69 -292 -135 -47 -33 -279
-257 -658 -635 -322 -322 -586 -585 -588 -585 -1 0 -2 532 -2 1183 l0 1182 28
47 c29 51 74 89 122 106 45 16 4894 16 4946 0z m-3221 -1594 c30 -9 75 -28
100 -42 27 -16 364 -345 830 -811 549 -548 797 -790 825 -802 80 -37 188 -16
247 47 59 63 75 169 36 246 -10 21 -86 105 -169 188 -119 119 -149 154 -140
164 23 28 277 276 302 295 123 95 329 101 475 16 27 -16 222 -203 458 -439
l412 -412 -1 -311 -1 -311 -30 -48 c-33 -54 -78 -88 -133 -104 -53 -15 -4867
-14 -4926 1 -57 14 -118 67 -140 121 -16 38 -18 80 -19 348 l-2 304 726 726
c399 399 743 739 765 756 111 85 244 109 385 68z"/>
<path d="M4070 4910 c-173 -51 -277 -235 -228 -404 60 -206 297 -301 481 -192
222 129 205 464 -28 576 -52 25 -173 36 -225 20z"/>
</g>
</svg>
